**ABCDEFGHIJKLMNOPQRSTUVWXYZabcdefghijklmnopqrstuvwxyz**************************
**PARASOLID !"#$%&'()*+,-./:;<=>?@[\]^_`{|}~0123456789**************************
**PART1;
MC=AMD64;
MC_MODEL=AMD64 Family 25 Model 80 Stepping 0, AuthenticAMD;
MC_ID=unknown;
OS=Windows_NT;
OS_RELEASE=unknown;
FRU=Parasolid Version 35.1, build 251, 11- 4-2023;
APPL=SOLIDWORKS 2024-2024157;
SITE=;
USER=unknown;
FORMAT=text;
GUISE=transmit;
KEY=CameraBase;
FILE=CameraBase.x_t;
DATE=Wed Jul 24 23:54:02 2024;
**PART2;
SCH=SCH_3501251_35102;
USFLD_SIZE=0;
**PART3;
**END_OF_HEADER*****************************************************************
T51 : TRANSMIT FILE created by modeller version 350125123 SCH_3501251_35102_1300
6231 0 12 36 CCCI7 lattice222 0 CCCI4 mesh1006 0 I8 polyline1008 0 CCCCCCCDI5 ow
ner1040 0 CCCI16 boundary_lattice222 0 CCCI13 boundary_mesh1006 0 I17 boundary_p
olyline1008 0 CCCA16 index_map_offset0 0 1 dA9 index_map82 0 A17 node_id_index_m
ap82 0 A20 schema_embedding_map82 0 A5 child12 0 A14 lowest_node_id0 0 1 dA16 me
sh_offset_data206 0 Z1 2722 2 3 0 0 0 0 0 0 0 1e3 1e-8 0 4 0 1 0 1 1 5 0 6 7 8 0
 0 9 10 11 0 0 0 0 0 0 0 81 255 2 2 2634 12 1 13 0 0 0 0 14 70 11 CI9 list_type0
 0 1 uI10 notransmit0 0 1 lCCCDCCDI12 finger_index0 0 1 dI12 finger_block1012 0
 CZ3 0 4 T1 0 0 11 20 1 15 15 13 255 5 99 0 1 0 16 0 0 17 0 51 255 6 2405 0 18 1
9 0 0 +-.0786990779305857 -.004 .001222495860326124 0 -1 0 .002 0 0 -1 31 255 7
 2266 0 10 20 0 0 +-.0786990779305857 -.004 .001222495860326124 0 1 0 0 0 1 .002
 29 255 8 2182 0 11 21 0 -.0768115816445525 -.004 .00997740923528354 19 9 CCCCCC
I5 frame230 0 CA5 owner12 0 Z9 33 0 1 17 0 22 0 V0 16 255 10 2250 0 ?23 0 24 7 0
 0 1 18 255 11 2180 0 25 0 26 8 ?1 17 255 25 0 27 28 29 11 30 31 0 32 +18 26 217
7 0 23 11 33 21 ?1 17 23 0 34 32 35 26 36 10 0 28 +18 33 2174 0 37 26 38 39 ?1 2
9 21 2179 0 26 39 8 -.0805106595751382 -.004 .00206994612147446 29 39 2176 0 33
 40 21 -.0768115816445525 0 .00997740923528354 29 40 2173 0 38 41 39 -.080510659
5751382 0 .002069946121474455 18 38 2171 0 42 33 43 40 ?1 29 41 2158 0 43 44 40
 -.0694893404248618 -.004 .002069946121474455 18 43 2156 0 45 38 46 41 ?1 29 44
 2155 0 46 47 41 -.0731884183554475 -.004 .00997740923528353 18 46 2153 0 48 43
 49 44 ?1 29 47 2152 0 49 50 44 -.0694893404248618 0 .00206994612147444 18 49 21
50 0 51 46 52 47 ?1 29 50 2149 0 52 53 47 -.0731884183554475 0 .0099774092352835
2 18 52 2147 0 54 49 55 50 ?1 29 53 2134 0 55 56 50 -.0786990779305857 -.004 -.0
00777504139673876 18 55 2132 0 57 52 58 53 ?1 29 56 2131 0 58 59 53 -.0713009220
694143 -.004 -.000777504139673884 18 58 2129 0 60 55 61 56 ?1 29 59 2128 0 61 62
 56 -.0786990779305857 0 -.000777504139673876 18 61 2126 0 63 58 64 59 ?1 29 62
 2125 0 64 65 59 -.0713009220694143 0 -.000777504139673884 18 64 2123 0 66 61 67
 62 ?1 29 65 2110 0 67 68 62 .0731884183554475 -.004 .00997740923528354 18 67 21
08 0 69 64 70 65 ?1 29 68 2107 0 70 71 65 .0694893404248618 -.004 .0020699461214
74455 18 70 2105 0 72 67 73 68 ?1 29 71 2104 0 73 74 68 .0731884183554475 0 .009
97740923528352 18 73 2102 0 75 70 76 71 ?1 29 74 2101 0 76 77 71 .06948934042486
18 0 .00206994612147444 18 76 2099 0 78 73 79 74 ?1 29 77 2086 0 79 80 74 .08051
06595751382 -.004 .00206994612147446 18 79 2084 0 81 76 82 77 ?1 29 80 2083 0 82
 83 77 .0768115816445525 -.004 .00997740923528354 18 82 2081 0 84 79 85 80 ?1 29
 83 2080 0 85 86 80 .0805106595751382 0 .002069946121474455 18 85 2078 0 87 82 8
8 83 ?1 29 86 2077 0 88 89 83 .0768115816445525 0 .00997740923528354 18 88 2075
 0 90 85 91 86 ?1 29 89 2062 0 91 92 86 .0713009220694143 -.004 -.00077750413967
3884 18 91 2060 0 93 88 94 89 ?1 29 92 2059 0 94 95 89 .0786990779305857 -.004 -
.000777504139673876 18 94 2057 0 96 91 97 92 ?1 29 95 2056 0 97 98 92 .071300922
0694143 0 -.000777504139673884 18 97 2054 0 99 94 100 95 ?1 29 98 2053 0 100 101
 95 .0786990779305857 0 -.000777504139673876 18 100 2051 0 102 97 103 98 ?1 29 1
01 1893 0 103 104 98 -.0925 0 .016 18 103 1891 0 105 100 106 101 ?1 29 104 1890
 0 106 107 101 -.0925 0 -.016 18 106 1888 0 108 103 109 104 ?1 29 107 1869 0 109
 110 104 -.0885 0 -.02 18 109 1867 0 111 106 112 107 ?1 29 110 1842 0 112 113 10
7 -.0885 -.004 -.02 18 112 1840 0 114 109 115 110 ?1 29 113 1839 0 115 116 110 .
0885 -.004 -.02 18 115 1837 0 117 112 118 113 ?1 29 116 1836 0 118 119 113 -.092
5 -.004 .016 18 118 1834 0 120 115 121 116 ?1 29 119 1833 0 121 122 116 -.0925 -
.004 -.016 18 121 1831 0 123 118 124 119 ?1 29 122 1818 0 124 125 119 .0925 -.00
4 -.016 18 124 1816 0 126 121 127 122 ?1 29 125 1815 0 127 128 122 .0925 -.004 .
016 18 127 1813 0 129 124 130 125 ?1 29 128 1800 0 130 131 125 .0925 0 -.016 18
 130 1798 0 132 127 133 128 ?1 29 131 1797 0 133 134 128 .0925 0 .016 18 133 179
5 0 135 130 136 131 ?1 29 134 1794 0 136 137 131 .0885 0 -.02 18 136 1792 0 138
 133 139 134 ?1 29 137 1773 0 139 140 134 .0885 0 .02 18 139 1771 0 141 136 142
 137 ?1 29 140 1770 0 142 143 137 .0885 -.004 .02 18 142 1768 0 144 139 145 140
 ?1 29 143 1767 0 145 146 140 -.0885 -.004 .02 18 145 1765 0 147 142 148 143 ?1
 29 146 1764 0 148 149 143 -.0885 0 .02 18 148 1762 0 150 145 151 146 ?1 29 149
 1661 0 151 152 146 -.005 .04 -.02 18 151 1659 0 153 148 154 149 ?1 29 152 1649
 0 154 155 149 -.005 .04 .02 18 154 1647 0 156 151 157 152 ?1 29 155 1632 0 157
 158 152 .005 .04 .02 18 157 1630 0 159 154 160 155 ?1 29 158 1629 0 160 161 155
 .005 .04 -.02 18 160 1627 0 162 157 163 158 ?1 29 161 1614 0 163 164 158 -.005
 .05 .01 18 163 1612 0 165 160 166 161 ?1 29 164 1611 0 166 167 161 -.005 .05 -.
01 18 166 1609 0 168 163 169 164 ?1 29 167 1608 0 169 170 164 .005 .05 -.01 18 1
69 1606 0 171 166 172 167 ?1 29 170 1605 0 172 173 167 .005 .05 .01 18 172 1603
 0 174 169 175 170 ?1 29 173 893 0 175 176 170 .055 -.004 .0075 18 175 891 0 177
 172 178 173 ?1 29 176 872 0 178 179 173 -.055 -.004 -.0075 18 178 870 0 180 175
 181 176 ?1 29 179 842 0 181 182 176 -.005 .015 -.0075 18 181 840 0 183 178 184
 179 ?1 29 182 809 0 184 185 179 .005 .015 .0075 18 184 807 0 186 181 187 182 ?1
 29 185 604 0 187 188 182 -.055 0 .02 18 187 602 0 189 184 190 185 ?1 29 188 601
 0 190 191 185 -.055 0 -.02 18 190 599 0 192 187 193 188 ?1 29 191 592 0 193 194
 188 -.005 .015 -.02 18 193 590 0 195 190 196 191 ?1 29 194 589 0 196 197 191 -.
005 .015 .02 18 196 587 0 198 193 199 194 ?1 29 197 773 0 200 201 194 .055 -2775
55756156289e-31 .02 18 200 735 0 202 203 204 197 ?1 29 201 774 0 204 205 197 .00
5 .015 .02 18 204 736 0 206 200 207 201 ?1 29 205 776 0 199 208 201 .055 -277555
756156289e-31 -.02 18 199 732 0 209 196 203 205 ?1 29 208 777 0 203 210 205 .005
 .015 -.02 18 203 734 0 211 199 200 208 ?1 29 210 1391 0 207 212 208 -.005 .015
 .0075 18 207 1253 0 213 204 214 210 ?1 29 212 1392 0 214 215 210 -.055 0 .0075
 18 214 1255 0 216 207 217 212 ?1 29 215 1394 0 217 218 212 -.055 -8673617379884
04e-33 -.0075 18 217 1257 0 219 214 220 215 ?1 29 218 1395 0 220 221 215 .005 .0
15 -.0075 18 220 1166 0 222 217 223 218 ?1 29 221 1396 0 223 224 218 .055 -36429
19299551295e-32 -.0075 18 223 1168 0 225 220 226 221 ?1 29 224 1398 0 226 227 22
1 .055 -3512815038853035e-32 .0075 18 226 1170 0 228 223 229 224 ?1 29 227 1399
 0 229 230 224 -.005 -.004 .0075 18 229 1254 0 231 226 232 227 ?1 29 230 1400 0
 232 233 227 -.055 -.004 .0075 18 232 1256 0 234 229 235 230 ?1 29 233 1402 0 23
5 236 230 -.005 -.004 -.0075 18 235 1259 0 237 232 238 233 ?1 29 236 1423 0 238
 239 233 .005 -.004 .0075 18 238 1172 0 240 235 241 236 ?1 29 239 1425 0 241 242
 236 .055 -.004 -.0075 18 241 1169 0 243 238 244 239 ?1 29 242 1426 0 244 0 239
 .005 -.004 -.0075 18 244 1167 0 245 241 0 242 ?1 17 245 0 246 247 222 244 248 2
49 0 250 -15 255 246 1185 0 245 251 0 17 247 0 246 252 245 241 253 254 0 255 -17
 222 0 246 245 252 220 256 257 0 248 -17 248 0 258 259 250 220 245 249 0 260 +16
 249 1135 0 ?248 261 0 262 0 0 1 17 250 0 258 248 240 244 263 264 0 253 -15 258
 693 0 265 266 0 17 240 0 258 250 267 238 186 268 0 269 -17 263 0 270 271 253 23
8 250 264 0 0 +16 264 1132 0 ?263 272 273 274 0 0 1 17 253 0 270 263 255 244 247
 254 0 0 +15 270 889 0 253 275 276 17 255 0 270 253 271 241 177 277 0 0 +16 254
 1137 0 ?253 277 268 278 0 0 1 16 277 1142 0 ?255 273 254 279 0 0 1 16 268 1130
 0 ?186 254 280 281 0 0 1 30 255 278 1380 0 254 262 279 0 +.005 -.004 -.0075 -1
 0 1387778780781446e-31 30 262 1381 0 249 282 278 0 +.005 -.004 -.0075 0 1 0 30
 279 1379 0 277 278 283 0 +.055 -.004 -.0075 0 0 -1 30 283 1378 0 273 279 274 0
 +.005 -.004 .0075 1 0 1387778780781446e-31 16 273 1147 0 ?271 264 277 283 0 0 1
 30 274 1377 0 264 283 284 0 +.005 -.004 -.0075 0 0 1 30 284 1369 0 285 274 286
 0 +-.075 -.004 .01385 .4237251305741685 0 -.90579082227626 16 285 2154 0 ?287 2
88 289 284 0 0 1 30 286 1368 0 288 284 290 0 +-.0818426848110271 -.004 -.0007775
04139673873 .423725130574169 0 .90579082227626 16 288 2178 0 ?32 291 285 286 0 0
 1 30 290 1367 0 291 286 292 0 +-.0681573151889729 -.004 -.000777504139673887 -1
 0 1014060138021422e-30 16 291 2130 0 ?35 293 288 290 0 0 1 30 292 1360 0 272 29
0 294 0 +.075 -.004 .01385 .4237251305741685 0 .90579082227626 16 272 2106 0 ?29
5 296 264 292 0 0 1 30 294 1359 0 296 292 297 0 +.0681573151889729 -.004 -.00077
7504139673887 -1 0 -1014060138021422e-30 16 296 2058 0 ?298 289 272 294 0 0 1 30
 297 1358 0 289 294 299 0 +.0818426848110271 -.004 -.000777504139673873 .4237251
30574169 0 -.90579082227626 16 289 2082 0 ?300 285 296 297 0 0 1 30 299 1350 0 2
93 297 301 0 +-.005 -.004 -.0075 0 0 -1 16 293 1219 0 ?302 303 291 299 0 0 1 30
 301 1349 0 303 299 304 0 +-.005 -.004 -.0075 -1 0 -1387778780781446e-31 16 303
 1234 0 ?305 306 293 301 0 0 1 30 304 1348 0 306 301 307 0 +-.055 -.004 -.0075 0
 0 1 16 306 1229 0 ?308 309 303 304 0 0 1 30 307 1347 0 309 304 310 0 +-.005 -.0
04 .0075 1 0 -1387778780781446e-31 16 309 1224 0 ?311 312 306 307 0 0 1 30 310 1
346 0 313 307 314 0 +-.005 -.004 .0075 0 1 0 16 313 1222 0 ?315 316 317 310 0 0
 1 30 314 1345 0 317 310 318 0 +-.055 -.004 .0075 0 1 0 16 317 1227 0 ?319 313 3
20 314 0 0 1 30 318 1344 0 320 314 321 0 +-.055 -.004 -.0075 0 1 0 16 320 1232 0
 ?322 317 312 318 0 0 1 30 321 1343 0 312 318 323 0 +-.005 -.004 -.0075 0 1 0 16
 312 1217 0 ?183 320 309 321 0 0 1 30 323 1338 0 316 321 324 0 +78843595519e-29
 0 -.000777504139673956 -1 0 -1014060138021422e-30 16 316 2052 0 ?325 326 313 32
3 0 0 1 30 324 1337 0 326 323 327 0 +.0562185582969726 0 -.02629880472316255 .42
37251305741685 0 .90579082227626 16 326 2100 0 ?328 329 316 324 0 0 1 30 327 133
6 0 329 324 330 0 +.066849993761013 0 .03127214544312125 .423725130574169 0 -.90
579082227626 16 329 2076 0 ?331 332 326 327 0 0 1 30 330 1335 0 332 327 333 0 +-
.066849993761013 0 .03127214544312125 .423725130574169 0 .90579082227626 16 332
 2172 0 ?29 334 329 330 0 0 1 30 333 1334 0 334 330 335 0 +-.0562185582969726 0
 -.02629880472316255 .4237251305741685 0 -.90579082227626 16 334 2148 0 ?336 337
 332 333 0 0 1 30 335 1333 0 337 333 338 0 +-78843595519e-29 0 -.000777504139673
956 -1 0 1014060138021422e-30 16 337 2124 0 ?339 340 334 335 0 0 1 30 338 770 0
 341 335 342 0 +.055 -277555756156289e-31 .02 0 0 -1 16 341 722 0 ?343 344 345 3
38 340 345 1 30 342 769 0 346 338 347 0 +.005 .015 .02 0 0 -1 16 346 714 0 ?267
 348 344 342 344 344 1 30 347 768 0 349 342 350 0 +.005 .015 -.02 -.957826285221
151 .287347885566346 0 16 349 719 0 ?351 352 348 347 0 0 1 30 350 765 0 348 347
 353 0 +.005 .015 .02 -.957826285221151 .287347885566346 0 16 348 729 0 ?354 349
 346 350 0 0 1 30 353 670 0 355 350 356 0 +-.005 .015 .02 -.957826285221151 -.28
73478855663455 0 16 355 630 0 ?357 358 352 353 0 0 1 30 356 667 0 352 353 359 0
 +-.005 .015 -.02 -.957826285221151 -.2873478855663455 0 16 352 620 0 ?360 355 3
49 356 0 0 1 30 359 666 0 361 356 362 0 +-.055 0 .02 0 0 -1 16 361 615 0 ?363 36
4 365 359 358 365 1 30 362 665 0 366 359 367 0 +-.005 .015 .02 0 0 -1 16 366 623
 0 ?368 369 364 362 364 364 1 30 367 554 0 369 362 370 0 +.005 .05 -.02 0 0 -1 1
6 369 1604 0 ?371 372 366 367 0 0 1 30 370 552 0 372 367 373 0 +-.005 .05 -.02 0
 0 1 16 372 1610 0 ?374 375 369 370 0 0 1 30 373 546 0 375 370 376 0 +.005 .05 .
02 0 -1 0 16 375 1631 0 ?206 377 372 373 0 0 1 30 376 545 0 377 373 378 0 +-.005
 .05 .02 0 -1 0 16 377 1648 0 ?198 379 375 376 0 0 1 30 378 544 0 379 376 380 0
 +-.005 .05 -.02 0 -1 0 16 379 1660 0 ?195 381 377 378 0 0 1 30 380 543 0 381 37
8 382 0 +.005 .05 -.02 0 -1 0 16 381 1628 0 ?211 383 379 380 0 0 1 31 382 413 0
 384 380 385 0 +-.065 -.004 .01185 0 1 0 0 0 1 .002 16 384 326 0 ?386 387 388 38
2 0 0 1 31 385 411 0 388 382 389 0 +-.085 -.004 .01185 0 1 0 0 0 -1 .002 16 388
 302 0 ?390 384 391 385 0 0 1 31 389 409 0 391 385 392 0 +.065 -.004 .01185 0 1
 0 0 0 -1 .002 16 391 278 0 ?393 388 394 389 0 0 1 31 392 407 0 394 389 395 0 +.
085 -.004 .01185 0 1 0 0 0 1 .002 16 394 254 0 ?396 391 383 392 0 0 1 31 395 405
 0 383 392 397 0 +.075 -.004 -.01185 0 1 0 0 0 -1 .002 16 383 230 0 ?398 394 381
 395 0 0 1 31 397 402 0 387 395 399 0 +-.075 -.004 -.01185 0 1 0 0 0 1 .002 16 3
87 350 0 ?400 401 384 397 0 0 1 30 399 7 0 402 397 403 0 +.0925 -.004 -.02 0 0 -
1 16 402 1814 0 ?404 405 406 399 0 0 1 30 403 11 0 405 399 407 0 +-.0925 -.004 -
.02 -1 0 0 16 405 1838 0 ?408 409 402 403 0 0 1 30 407 15 0 409 403 410 0 +-.092
5 -.004 -.02 0 0 1 16 409 1832 0 ?411 412 405 407 0 0 1 30 410 19 0 412 407 413
 0 +-.0925 -.004 .02 1 0 0 16 412 1766 0 ?414 415 409 410 0 0 1 30 413 74 0 416
 410 417 0 +.0925 0 -.02 0 0 -1 16 416 1796 0 ?418 419 420 413 0 0 1 30 417 73 0
 421 413 422 0 +-.0925 0 -.02 -1 0 0 16 421 1793 0 ?209 423 419 417 419 419 1 30
 422 72 0 423 417 424 0 +-.0925 0 -.02 0 0 1 16 423 1889 0 ?425 426 421 422 0 0
 1 30 424 71 0 406 422 427 0 +-.0925 0 .02 1 0 0 16 406 1763 0 ?189 402 426 424
 426 426 1 31 427 147 0 401 424 428 0 +-.075 0 -.01185 0 1 0 0 0 1 .002 16 401 3
49 0 ?429 430 387 427 0 0 1 31 428 154 0 430 427 431 0 +-.065 0 .01185 0 1 0 0 0
 1 .002 16 430 325 0 ?432 433 401 428 0 0 1 31 431 161 0 433 428 434 0 +-.085 0
 .01185 0 1 0 0 0 1 .002 16 433 301 0 ?435 436 430 431 0 0 1 31 434 168 0 436 43
1 437 0 +.065 0 .01185 0 1 0 0 0 1 .002 16 436 277 0 ?438 439 433 434 0 0 1 31 4
37 175 0 439 434 440 0 +.085 0 .01185 0 1 0 0 0 1 .002 16 439 253 0 ?441 420 436
 437 0 0 1 31 440 182 0 420 437 442 0 +.075 0 -.01185 0 1 0 0 0 1 .002 16 420 22
9 0 ?443 416 439 440 0 0 1 30 442 821 0 415 440 444 0 +.005 .015 .0075 -.9578262
85221151 .287347885566346 -132925099430463e-30 16 415 819 0 ?445 257 412 442 0 0
 1 30 444 827 0 257 442 446 0 +.005 .015 -.0075 .957826285221151 -.2873478855663
46 -132925099430463e-30 16 257 825 0 ?256 447 415 444 0 0 1 30 446 845 0 447 444
 448 0 +-.005 .015 -.0075 .957826285221151 .2873478855663455 132925099430463e-30
 16 447 843 0 ?449 450 257 446 0 0 1 30 448 851 0 450 446 451 0 +-.005 .015 .007
5 -.957826285221151 -.2873478855663455 132925099430463e-30 16 450 849 0 ?452 453
 447 448 0 0 1 30 451 1617 0 453 448 454 0 +0 .05 -.01 -1 0 0 16 453 1615 0 ?455
 456 450 451 0 0 1 30 454 1623 0 456 451 457 0 +0 .05 .01 1 0 0 16 456 1621 0 ?4
58 459 453 454 0 0 1 31 457 1635 0 459 454 460 0 -.005 .04 -.01 -1 0 0 0 0 1 .01
 16 459 1633 0 ?171 461 456 457 0 0 1 31 460 1642 0 461 457 462 0 -.005 .04 .01
 -1 0 0 0 0 1 .01 16 461 1640 0 ?159 463 459 460 0 0 1 30 462 1652 0 463 460 464
 0 --.0925 .04 .02 1 0 0 16 463 1650 0 ?156 465 461 462 0 0 1 31 464 1664 0 465
 462 466 0 --.005 .04 -.01 1 0 0 0 0 -1 .01 16 465 1662 0 ?153 467 463 464 0 0 1
 31 466 1671 0 467 464 468 0 --.005 .04 .01 1 0 0 0 0 -1 .01 16 467 1669 0 ?165
 469 465 466 0 0 1 30 468 1678 0 469 466 470 0 --.0925 .04 -.02 -1 0 0 16 469 16
76 0 ?162 471 467 468 0 0 1 30 470 1776 0 471 468 472 0 --.0885 -.004 .02 0 1 0
 16 471 1774 0 ?147 473 469 470 0 0 1 30 472 1785 0 473 470 474 0 +.0885 -.004 .
02 0 1 0 16 473 1783 0 ?475 476 471 472 0 0 1 31 474 1803 0 476 472 477 0 +.0885
 0 -.016 0 1 0 0 0 1 .004 16 476 1801 0 ?138 478 473 474 0 0 1 31 477 1809 0 478
 474 479 0 +.0885 0 .016 0 1 0 0 0 1 .004 16 478 1807 0 ?135 480 476 477 0 0 1 3
0 479 1821 0 480 477 481 0 +.0925 -.004 -.016 0 1 0 16 480 1819 0 ?482 483 478 4
79 0 0 1 30 481 1827 0 483 479 484 0 -.0925 -.004 .016 0 1 0 16 483 1825 0 ?129
 485 480 481 0 0 1 31 484 1845 0 485 481 486 0 --.0885 -.004 -.016 0 1 0 0 0 1 .
004 16 485 1843 0 ?114 487 483 484 0 0 1 31 486 1851 0 487 484 488 0 --.0885 -.0
04 .016 0 1 0 0 0 1 .004 16 487 1849 0 ?120 489 485 486 0 0 1 31 488 1857 0 489
 486 490 0 -.0885 -.004 -.016 0 1 0 0 0 1 .004 16 489 1855 0 ?126 491 487 488 0
 0 1 31 490 1863 0 491 488 492 0 -.0885 -.004 .016 0 1 0 0 0 1 .004 16 491 1861
 0 ?144 493 489 490 0 0 1 30 492 1872 0 493 490 494 0 +-.0885 -.004 -.02 0 1 0 1
6 493 1870 0 ?495 496 491 492 0 0 1 30 494 1881 0 496 492 497 0 -.0885 -.004 -.0
2 0 1 0 16 496 1879 0 ?117 498 493 494 0 0 1 30 497 1896 0 498 494 499 0 --.0925
 -.004 -.016 0 1 0 16 498 1894 0 ?123 500 496 497 0 0 1 30 499 1902 0 500 497 50
1 0 +-.0925 -.004 .016 0 1 0 16 500 1900 0 ?502 503 498 499 0 0 1 31 501 1908 0
 503 499 504 0 +-.0885 0 -.016 0 1 0 0 0 1 .004 16 503 1906 0 ?108 505 500 501 0
 0 1 31 504 1914 0 505 501 506 0 +-.0885 0 .016 0 1 0 0 0 1 .004 16 505 1912 0 ?
150 507 503 504 0 0 1 30 506 2065 0 507 504 508 0 -.0713009220694143 -.004 -.000
777504139673884 0 1 0 16 507 2063 0 ?93 509 505 506 0 0 1 30 508 2071 0 509 506
 510 0 +.0786990779305857 0 -.000777504139673876 0 1 0 16 509 2069 0 ?511 512 50
7 508 0 0 1 30 510 2089 0 512 508 513 0 +.0768115816445525 0 .00997740923528354
 0 1 0 16 512 2087 0 ?514 515 509 510 0 0 1 30 513 2095 0 515 510 516 0 -.080510
6595751382 -.004 .00206994612147446 0 1 0 16 515 2093 0 ?81 517 512 513 0 0 1 30
 516 2113 0 517 513 518 0 +.0694893404248618 -1734723475976805e-33 .002069946121
47445 0 1 0 16 517 2111 0 ?519 520 515 516 0 0 1 30 518 2119 0 520 516 521 0 -.0
731884183554475 -.004 .00997740923528353 0 1 0 16 520 2117 0 ?69 522 517 518 0 0
 1 30 521 2137 0 522 518 523 0 --.0786990779305857 -.004 -.000777504139673876 0
 1 0 16 522 2135 0 ?57 524 520 521 0 0 1 30 523 2143 0 524 521 525 0 +-.07130092
20694143 -1734723475976805e-33 -.000777504139673884 0 1 0 16 524 2141 0 ?526 527
 522 523 0 0 1 30 525 2161 0 527 523 528 0 +-.0731884183554475 0 .00997740923528
353 0 1 0 16 527 2159 0 ?529 530 524 525 0 0 1 30 528 2167 0 530 525 531 0 --.06
94893404248618 -.004 .00206994612147445 0 1 0 16 530 2165 0 ?45 532 527 528 0 0
 1 30 531 2185 0 532 528 533 0 +-.0805106595751382 0 .00206994612147446 0 1 0 16
 532 2183 0 ?534 31 530 531 0 0 1 30 533 2191 0 31 531 535 0 --.0768115816445525
 -.004 .00997740923528353 0 1 0 16 31 2189 0 ?25 536 532 533 0 0 1 31 535 2255 0
 536 533 537 0 -.0786990779305857 0 .001222495860326124 0 1 0 0 0 1 .002 16 536
 2195 0 ?87 538 31 535 0 0 1 31 537 2256 0 538 535 539 0 +.0786990779305857 -.00
4 .001222495860326124 0 1 0 0 0 1 .002 16 538 2200 0 ?96 540 536 537 0 0 1 31 53
9 2257 0 540 537 541 0 -.075 0 .0091299589741352 0 1 0 0 0 1 .002 16 540 2205 0
 ?75 542 538 539 0 0 1 31 541 2258 0 542 539 543 0 +.075 -.004 .0091299589741352
 0 1 0 0 0 1 .002 16 542 2210 0 ?84 544 540 541 0 0 1 31 543 2259 0 544 541 545
 0 -.0713009220694143 0 .001222495860326116 0 1 0 0 0 1 .002 16 544 2215 0 ?99 5
46 542 543 0 0 1 31 545 2260 0 546 543 547 0 +.0713009220694143 -.004 .001222495
860326116 0 1 0 0 0 1 .002 16 546 2220 0 ?72 548 544 545 0 0 1 31 547 2261 0 548
 545 549 0 --.0713009220694143 0 .001222495860326116 0 1 0 0 0 1 .002 16 548 222
5 0 ?51 550 546 547 0 0 1 31 549 2262 0 550 547 551 0 +-.0713009220694143 -.004
 .001222495860326116 0 1 0 0 0 1 .002 16 550 2230 0 ?60 552 548 549 0 0 1 31 551
 2263 0 552 549 553 0 --.075 0 .0091299589741352 0 1 0 0 0 1 .002 16 552 2235 0
 ?37 554 550 551 0 0 1 31 553 2264 0 554 551 20 0 +-.075 -.004 .0091299589741352
 0 1 0 0 0 1 .002 16 554 2240 0 ?48 24 552 553 0 0 1 31 20 2265 0 24 553 7 0 --.
0786990779305857 0 .001222495860326124 0 1 0 0 0 1 .002 16 24 2245 0 ?63 10 554
 20 0 0 1 17 63 0 555 556 557 61 42 24 0 339 +15 555 965 0 556 558 559 17 556 0
 555 51 63 64 339 337 0 0 -17 557 0 555 63 37 38 29 332 0 0 -17 42 0 560 561 562
 38 63 24 0 534 -17 339 0 563 57 526 61 556 337 0 562 +15 563 1047 0 564 565 0 1
7 57 0 563 564 339 55 562 522 0 35 +17 526 0 563 339 564 64 566 524 0 556 +17 56
2 0 560 42 36 61 57 522 0 0 -15 560 2394 0 36 18 0 17 36 0 560 562 561 55 23 10
 0 0 -17 561 0 560 36 42 26 534 532 0 0 -17 534 0 27 29 28 38 561 532 0 557 +15
 27 1055 0 29 567 0 17 29 0 27 25 534 33 557 332 0 30 +17 28 0 27 534 25 26 32 2
88 0 561 -17 32 0 34 48 23 11 28 288 0 568 +15 34 927 0 32 275 569 17 48 0 34 28
7 32 46 568 554 0 570 +17 568 0 571 30 572 11 48 554 0 0 -15 571 2373 0 568 573
 0 17 30 0 571 54 568 33 25 31 0 0 -17 572 0 571 568 54 46 529 527 0 0 -17 54 0
 571 572 30 52 37 552 0 529 -17 529 0 574 336 570 52 572 527 0 575 +15 574 1051
 0 336 576 0 17 336 0 574 45 529 49 575 334 0 577 +17 570 0 574 529 45 46 287 28
5 0 572 -17 575 0 555 37 51 52 336 334 0 0 -17 37 0 555 557 575 33 54 552 0 29 +
17 51 0 555 575 556 49 66 548 0 336 +17 66 0 578 566 577 64 51 548 0 526 -15 578
 2352 0 579 580 0 17 566 0 578 579 66 58 526 524 0 0 -17 577 0 578 66 579 49 45
 530 0 0 -17 579 0 578 577 566 43 60 550 0 0 -17 45 0 574 570 336 43 577 530 0 2
87 +17 287 0 34 60 48 43 570 285 0 579 +17 60 0 34 35 287 58 579 550 0 564 +17 3
5 0 34 23 60 55 564 291 0 36 +17 564 0 563 526 57 58 35 291 0 566 -14 255 580 23
51 581 ?573 582 578 5 583 -0 0 573 582 22 81 1 581 2636 584 580 585 0 0 586 587
 14 573 2372 586 ?18 580 571 5 19 -0 0 18 580 22 14 582 2330 588 ?580 589 590 5
 591 -0 0 580 589 22 51 583 2363 0 580 591 19 0 +-.0713009220694143 -.004 .00122
2495860326116 0 -1 0 .002 0 0 -1 13 22 34 0 0 0 0 0 0 9 16 14 16 846 592 ?593 0
 594 5 595 -596 596 593 0 22 81 1 592 2642 584 16 597 0 588 598 599 14 593 822 5
98 ?600 16 601 5 602 -603 603 600 16 22 15 594 844 0 368 16 0 50 255 595 661 0 5
96 602 604 0 +-.005 .015 .02 .2873478855663455 -.957826285221151 0 .957826285221
151 .2873478855663455 0 14 596 647 605 ?603 606 607 5 595 -16 16 603 606 22 81 1
 605 2646 584 596 608 0 598 609 610 14 603 746 609 ?251 596 611 5 602 -593 593 2
51 596 22 14 606 529 612 ?596 613 614 5 604 +0 0 596 613 22 15 607 650 0 615 596
 0 17 615 0 607 449 360 217 192 358 0 616 -17 449 0 607 617 615 181 219 447 0 61
8 +17 360 0 607 615 617 190 619 352 0 0 +17 192 0 620 621 616 190 615 358 0 622
 +16 358 835 0 ?192 365 355 359 365 361 1 17 616 0 620 192 363 217 216 365 0 0 +
15 620 467 0 425 558 0 17 363 0 620 616 189 214 623 361 0 0 +17 216 0 624 234 32
2 214 616 365 0 319 -16 365 832 0 ?616 361 358 359 361 358 1 15 624 1276 0 234 6
25 0 17 234 0 624 180 216 232 319 317 0 626 -17 322 0 624 216 180 217 627 320 0
 615 +17 319 0 628 213 626 214 234 317 0 452 +15 628 1272 0 231 629 0 17 213 0 6
28 231 319 207 452 450 0 315 -17 626 0 628 319 231 232 311 309 0 308 -17 452 0 5
94 623 368 214 213 450 0 363 +17 623 0 594 630 452 187 363 361 0 0 -17 368 0 594
 452 630 207 631 366 0 0 +17 630 0 594 368 623 196 357 355 0 0 -17 631 0 632 633
 315 196 368 366 0 630 -15 632 594 0 633 634 0 17 633 0 632 165 631 154 198 377
 0 635 -17 315 0 632 631 636 207 231 313 0 368 +17 636 0 632 315 237 229 302 293
 0 311 -17 231 0 628 626 213 229 315 313 0 636 -17 237 0 632 636 618 235 183 312
 0 637 -17 302 0 276 305 311 235 636 293 0 0 +17 311 0 276 302 308 229 626 309 0
 0 +15 276 868 0 311 275 638 17 308 0 276 311 305 232 180 306 0 0 +17 305 0 276
 308 302 178 637 303 0 0 +17 180 0 624 322 234 178 308 306 0 627 -17 627 0 639 6
37 219 178 322 320 0 305 -15 639 1280 0 627 640 0 17 637 0 639 183 627 235 305 3
03 0 302 -17 219 0 639 627 183 217 449 447 0 322 -17 183 0 639 219 637 181 237 3
12 0 449 +14 640 1277 641 ?642 625 639 5 643 -0 0 642 625 22 81 1 641 2652 584 6
40 644 0 612 645 646 14 642 1111 645 ?647 640 648 5 649 -0 0 647 640 22 14 625 1
273 650 ?640 629 624 5 651 -0 0 640 629 22 50 643 1312 0 640 651 602 0 +-.005 -.
004 -.0075 1387778780781446e-31 0 -1 -1 0 -1387778780781446e-31 50 651 1313 0 62
5 652 643 0 +-.055 -.004 -.0075 -1 0 0 0 0 1 50 602 760 0 603 643 595 0 +.005 .0
15 .02 -.287347885566346 -.957826285221151 0 .957826285221151 -.287347885566346
 0 50 652 1314 0 629 653 651 0 +-.005 -.004 .0075 1387778780781446e-31 0 1 1 0 -
1387778780781446e-31 14 629 1269 654 ?625 655 628 5 652 -0 0 625 655 22 50 653 1
319 0 647 656 652 0 +.075 -.004 .01385 -.90579082227626 0 .423725130574169 .4237
251305741685 0 .90579082227626 14 647 1115 657 ?658 642 659 5 653 -0 0 658 642 2
2 50 656 1320 0 658 649 653 0 +.0681573151889729 -.004 -.000777504139673887 1014
060138021422e-30 0 -1 -1 0 -1014060138021422e-30 14 658 1119 660 ?565 647 661 5
 656 -0 0 565 647 22 50 649 1321 0 642 662 656 0 +.0818426848110271 -.004 -.0007
77504139673873 .90579082227626 0 .423725130574169 .423725130574169 0 -.905790822
27626 50 662 1324 0 576 663 649 0 +-.075 -.004 .01385 .90579082227626 0 .4237251
30574169 .4237251305741685 0 -.90579082227626 14 576 1048 664 ?567 565 574 5 662
 -0 0 567 565 22 50 663 1325 0 567 665 662 0 +-.0818426848110271 -.004 -.0007775
04139673873 -.90579082227626 0 .423725130574169 .423725130574169 0 .905790822276
26 14 567 1052 666 ?667 576 27 5 663 -0 0 667 576 22 50 665 1326 0 565 668 663 0
 +-.0681573151889729 -.004 -.000777504139673887 -1014060138021422e-30 0 -1 -1 0
 1014060138021422e-30 14 565 1044 669 ?576 658 563 5 665 -0 0 576 658 22 50 668
 1329 0 251 670 665 0 +.005 -.004 -.0075 -1387778780781446e-31 0 -1 -1 0 1387778
780781446e-31 14 251 1182 671 ?672 603 246 5 668 -0 0 672 603 22 50 670 1330 0 6
72 673 668 0 +.055 -.004 -.0075 1 0 0 0 0 -1 14 672 1186 674 ?655 251 675 5 670
 -0 0 655 251 22 50 673 1331 0 655 0 670 0 +.005 -.004 .0075 -1387778780781446e-
31 0 1 1 0 1387778780781446e-31 14 655 1190 676 ?629 672 677 5 673 -0 0 629 672
 22 81 1 676 2674 584 655 678 0 674 679 680 15 677 1193 0 681 655 0 17 681 0 677
 269 228 175 682 280 0 271 -17 269 0 677 186 681 238 271 273 0 263 -17 228 0 677
 681 186 226 445 415 0 682 -17 682 0 675 225 177 226 681 280 0 683 +16 280 1145
 0 ?682 268 261 684 0 0 1 17 271 0 270 255 263 175 269 273 0 0 +16 261 1140 0 ?2
52 280 249 282 0 0 1 30 684 1383 0 280 281 282 0 +.055 -.004 .0075 0 1 0 30 281
 1384 0 268 0 684 0 +.005 -.004 .0075 0 1 0 30 282 1382 0 261 684 262 0 +.055 -.
004 -.0075 0 1 0 17 252 0 246 222 247 223 243 261 0 256 +17 243 0 675 177 225 24
1 252 261 0 247 -17 256 0 601 685 260 223 222 257 0 686 +15 601 820 0 260 593 0
 17 685 0 601 351 256 199 686 340 0 687 +17 260 0 601 256 351 220 259 344 0 0 -1
7 686 0 688 683 209 223 685 340 0 0 -15 688 472 0 689 600 0 17 683 0 688 690 686
 226 225 345 0 343 -17 209 0 688 686 138 199 691 421 0 685 +16 340 817 0 ?685 34
5 337 338 345 341 1 16 345 814 0 ?225 341 340 338 341 340 1 17 225 0 675 243 682
 223 683 345 0 252 +15 675 1189 0 243 672 0 17 138 0 688 209 418 136 132 476 0 6
91 +17 691 0 692 117 687 136 209 421 0 693 -15 692 783 0 691 694 0 17 117 0 692
 408 691 115 693 496 0 695 +17 687 0 692 691 211 199 351 349 0 0 -17 693 0 696 1
32 697 136 117 496 0 0 -15 696 1961 0 697 698 0 17 132 0 696 699 693 130 138 476
 0 482 -17 697 0 696 693 699 115 126 489 0 0 -17 699 0 696 697 132 124 482 480 0
 0 -17 126 0 700 701 695 124 697 489 0 404 +15 700 4 0 701 275 0 17 701 0 700 14
4 126 127 404 402 0 702 -17 695 0 700 126 114 115 408 405 0 697 -17 404 0 703 48
2 129 124 701 402 0 699 +15 703 89 0 704 705 0 17 482 0 703 704 404 130 699 480
 0 418 +17 129 0 703 404 704 127 706 483 0 701 +17 704 0 703 129 482 133 418 416
 0 706 -17 706 0 707 141 702 133 129 483 0 0 -15 707 1940 0 702 708 0 17 141 0 7
07 709 706 139 135 478 0 475 -17 702 0 707 706 709 127 144 491 0 0 -17 709 0 707
 702 141 142 475 473 0 0 -17 144 0 700 710 701 142 702 491 0 414 +17 710 0 700 1
20 144 145 414 412 0 711 -17 414 0 712 475 147 142 710 412 0 709 +15 712 784 0 4
14 713 0 17 475 0 712 714 414 139 709 473 0 689 +17 147 0 712 414 715 145 716 47
1 0 710 +17 715 0 712 147 357 148 189 406 0 716 -17 716 0 717 105 711 148 147 47
1 0 0 -15 717 1982 0 711 718 0 17 105 0 717 719 716 103 150 505 0 502 -17 711 0
 717 716 719 145 120 487 0 0 -17 719 0 717 711 105 118 502 500 0 0 -17 120 0 700
 720 710 118 711 487 0 411 +17 720 0 700 114 120 121 411 409 0 721 -17 411 0 722
 502 123 118 720 409 0 719 +15 722 85 0 411 723 0 17 502 0 722 724 411 103 719 5
00 0 425 +17 123 0 722 411 724 121 725 498 0 720 +17 724 0 722 123 502 106 425 4
23 0 725 -17 725 0 726 111 721 106 123 498 0 0 -15 726 2003 0 721 727 0 17 111 0
 726 728 725 109 108 503 0 495 -17 721 0 726 725 728 121 114 485 0 0 -17 728 0 7
26 721 111 112 495 493 0 0 -17 114 0 700 695 720 112 721 485 0 408 +17 408 0 692
 495 117 112 695 405 0 728 +17 495 0 692 622 408 109 728 493 0 621 +17 622 0 692
 619 495 190 621 419 0 360 -17 621 0 620 108 192 109 622 419 0 0 +17 108 0 620 4
25 621 106 111 503 0 724 +16 419 600 0 ?621 421 416 417 421 421 1 17 425 0 620 1
50 108 103 724 423 0 0 +17 150 0 620 189 425 148 105 505 0 715 +17 189 0 620 363
 150 187 715 406 0 357 +17 357 0 712 715 198 187 630 355 0 623 +17 198 0 712 357
 156 196 633 377 0 631 +17 156 0 712 198 729 154 730 463 0 633 +17 729 0 712 156
 354 157 206 375 0 730 -17 730 0 731 174 635 157 156 463 0 0 -15 731 1705 0 635
 667 0 17 174 0 731 732 730 172 159 461 0 458 -17 635 0 731 730 732 154 165 467
 0 0 -17 732 0 731 635 174 163 458 456 0 0 -17 165 0 632 733 633 163 635 467 0 3
74 +17 733 0 632 153 165 166 374 372 0 0 -17 374 0 614 458 455 163 733 372 0 732
 +15 614 531 0 374 606 0 17 458 0 614 371 374 172 732 456 0 265 +17 455 0 614 37
4 371 166 734 453 0 733 +17 371 0 614 455 458 169 265 369 0 734 +17 734 0 735 73
6 168 169 455 453 0 0 -15 735 1726 0 736 737 0 17 736 0 735 738 734 160 171 459
 0 0 -17 168 0 735 734 738 166 153 465 0 455 -17 738 0 735 168 736 151 162 469 0
 0 -17 153 0 632 195 733 151 168 465 0 739 +17 195 0 632 618 153 193 739 379 0 6
17 +17 739 0 692 162 619 151 195 379 0 738 -17 162 0 692 211 739 160 738 469 0 7
40 +17 619 0 692 739 622 193 360 352 0 0 -17 211 0 692 687 162 203 740 381 0 259
 +17 740 0 258 171 259 160 211 381 0 736 -17 171 0 258 265 740 169 736 459 0 371
 +17 259 0 258 740 248 203 260 344 0 351 +16 344 811 0 ?259 346 341 342 346 346
 1 17 351 0 601 260 685 203 687 349 0 0 +17 265 0 258 159 171 172 371 369 0 0 -1
7 159 0 258 206 265 157 174 461 0 729 +17 206 0 258 267 159 204 729 375 0 354 +1
7 267 0 258 240 206 184 741 346 0 0 +17 354 0 712 729 714 204 202 348 0 741 +17
 714 0 712 354 475 200 689 426 0 0 -17 202 0 611 343 741 200 354 348 0 690 -17 7
41 0 611 202 445 204 267 346 0 0 -15 611 749 0 343 603 0 17 445 0 611 741 343 18
4 228 415 0 267 +17 343 0 611 445 202 226 690 341 0 0 +17 690 0 688 689 683 200
 343 341 0 714 -17 689 0 688 135 690 139 714 426 0 0 +17 135 0 688 418 689 133 1
41 478 0 704 +16 426 702 0 ?689 406 423 424 406 406 1 17 418 0 688 138 135 130 7
04 416 0 0 +17 618 0 632 237 195 181 617 364 0 0 -17 617 0 607 360 449 193 618 3
64 0 619 +16 364 841 0 ?617 366 361 362 366 366 1 14 737 1725 679 ?708 667 735 5
 742 +0 0 708 667 22 81 1 679 2676 584 737 743 0 676 744 745 14 708 1939 744 ?69
8 737 707 5 746 +0 0 698 737 22 14 667 1704 747 ?737 567 731 5 748 +0 0 737 567
 22 51 742 1737 0 737 748 746 0 +0 .04 -.01 -1 0 0 .01 0 0 1 51 748 1716 0 667 7
49 742 0 +0 .04 .01 1 0 0 .01 0 0 -1 51 746 1951 0 708 742 750 0 +.0885 -.004 .0
16 0 1 0 .004 0 0 1 51 750 1972 0 698 746 751 0 +.0885 -.004 -.016 0 1 0 .004 0
 0 1 14 698 1960 752 ?718 708 696 5 750 +0 0 718 708 22 51 751 1993 0 718 750 75
3 0 +-.0885 -.004 .016 0 1 0 .004 0 0 1 14 718 1981 754 ?727 698 717 5 751 +0 0
 727 698 22 51 753 2014 0 727 751 755 0 +-.0885 -.004 -.016 0 1 0 .004 0 0 1 14
 727 2002 756 ?757 718 726 5 753 +0 0 757 718 22 51 755 2300 0 757 753 758 0 +.0
786990779305857 -.004 .001222495860326124 0 -1 0 .002 0 0 -1 14 757 2288 759 ?58
9 727 760 5 755 -0 0 589 727 22 51 758 2321 0 589 755 591 0 +.075 -.004 .0091299
589741352 0 -1 0 .002 0 0 -1 14 589 2309 761 ?582 757 762 5 758 -0 0 582 757 22
 51 591 2342 0 582 758 583 0 +.0713009220694143 -.004 .001222495860326116 0 -1 0
 .002 0 0 -1 81 1 761 2690 584 589 763 0 759 764 765 15 762 2310 0 766 589 0 17
 766 0 762 767 768 67 84 542 0 0 -17 767 0 762 90 766 73 69 520 0 0 -17 768 0 76
2 766 90 82 514 512 0 0 -17 84 0 569 300 295 82 766 542 0 769 +15 569 910 0 298
 275 270 17 300 0 569 96 84 79 769 289 0 770 +17 295 0 569 84 72 67 771 272 0 76
6 +17 769 0 648 514 81 82 300 289 0 768 -15 648 1114 0 331 642 0 17 514 0 648 33
1 769 88 768 512 0 772 +17 81 0 648 769 331 79 773 515 0 300 +17 331 0 648 81 51
4 85 772 329 0 773 +17 773 0 760 102 770 85 81 515 0 0 -15 760 2289 0 770 757 0
 17 102 0 760 774 773 100 87 536 0 511 -17 770 0 760 773 774 79 96 538 0 0 -17 7
74 0 760 770 102 94 511 509 0 0 -17 96 0 569 298 300 94 770 538 0 775 +17 298 0
 569 72 96 91 775 296 0 776 +17 775 0 661 511 93 94 298 296 0 774 -15 661 1122 0
 775 658 0 17 511 0 661 325 775 100 774 509 0 777 +17 93 0 661 775 325 91 778 50
7 0 298 +17 325 0 661 93 511 97 777 316 0 778 +17 778 0 590 78 776 97 93 507 0 0
 -15 590 2331 0 776 582 0 17 78 0 590 779 778 76 99 544 0 519 -17 776 0 590 778
 779 91 72 546 0 0 -17 779 0 590 776 78 70 519 517 0 0 -17 72 0 569 295 298 70 7
76 546 0 771 +17 771 0 659 519 69 70 295 272 0 779 -15 659 1118 0 328 647 0 17 5
19 0 659 328 771 76 779 517 0 780 +17 69 0 659 771 328 67 767 520 0 295 +17 328
 0 659 69 519 73 780 326 0 767 +17 780 0 781 99 75 76 328 326 0 0 -15 781 991 0
 772 600 782 17 99 0 781 777 780 97 78 544 0 325 +17 75 0 781 780 772 73 90 540
 0 328 +17 772 0 781 75 87 88 331 329 0 0 -17 90 0 762 768 767 88 75 540 0 514 -
17 87 0 781 772 777 85 102 536 0 331 +17 777 0 781 87 99 100 325 316 0 0 -14 600
 707 764 ?266 593 781 5 783 +558 558 266 593 22 15 782 167 0 784 600 785 17 784
 0 782 784 784 0 438 436 0 0 -15 785 174 0 786 600 787 17 786 0 785 786 786 0 44
1 439 0 0 -15 787 181 0 788 600 688 17 788 0 787 788 788 0 443 420 0 0 -17 443 0
 789 443 443 0 788 420 0 0 +15 789 244 0 443 613 790 14 613 241 791 ?606 792 789
 5 793 -0 0 606 792 22 15 790 245 0 794 613 0 17 794 0 790 794 794 0 398 383 0 0
 -17 398 0 638 398 398 0 794 383 0 0 +15 638 222 0 398 275 795 14 275 1 796 ?797
 694 34 5 798 -0 0 797 694 22 15 795 215 0 396 275 799 17 396 0 795 396 396 0 80
0 394 0 0 +15 799 208 0 393 275 801 17 393 0 799 393 393 0 802 391 0 0 +15 801 2
01 0 390 275 803 17 390 0 801 390 390 0 804 388 0 0 +15 803 194 0 386 275 805 17
 386 0 803 386 386 0 806 384 0 0 +15 805 187 0 400 275 700 17 400 0 805 400 400
 0 807 387 0 0 +17 807 0 808 807 807 0 400 387 0 0 -15 808 365 0 807 797 0 14 79
7 361 809 ?810 275 811 5 812 -0 0 810 275 22 81 1 809 2698 584 797 813 0 796 814
 815 14 810 337 814 ?816 797 817 5 818 -0 0 816 797 22 15 811 364 0 429 797 808
 51 812 384 0 797 793 798 0 +-.075 -.004 -.01185 0 1 0 .002 0 0 1 51 793 389 0 6
13 819 812 0 +.075 -.004 -.01185 0 1 0 .002 0 0 1 50 798 3 0 275 812 783 0 +0 -.
004 0 0 1 0 0 0 1 50 783 70 0 558 798 820 0 +0 0 0 0 1 0 0 0 1 14 558 608 821 ?6
34 266 555 5 783 +600 600 634 266 22 50 820 91 0 713 783 822 0 +-.0925 -.004 .02
 0 0 1 1 0 0 14 713 84 823 ?723 705 712 5 820 +0 0 723 705 22 50 822 92 0 723 82
0 824 0 +-.0925 -.004 -.02 -1 0 0 0 0 1 14 723 86 825 ?694 713 722 5 822 +0 0 69
4 713 22 50 824 93 0 694 822 749 0 +-.0925 -.004 -.02 0 0 -1 -1 0 0 14 694 88 82
6 ?275 723 692 5 824 +0 0 275 723 22 50 749 94 0 705 824 748 0 +.0925 -.004 -.02
 1 0 0 0 0 -1 14 705 90 827 ?713 634 703 5 749 +0 0 713 634 22 81 1 827 2710 584
 705 828 0 826 829 830 14 634 596 829 ?705 558 632 5 831 -0 0 705 558 22 81 1 82
9 2712 584 634 832 0 827 833 834 50 831 539 0 634 604 835 0 +-.005 .05 -.02 1 0
 0 0 0 -1 50 604 542 0 606 595 831 0 +0 .05 0 0 1 0 0 0 1 50 835 537 0 266 831 8
18 0 +.005 .05 -.02 -1 0 0 0 0 1 14 266 695 833 ?558 600 258 5 835 -0 0 558 600
 22 51 818 401 0 810 835 836 0 +-.065 -.004 .01185 0 1 0 .002 0 0 1 51 836 398 0
 816 818 837 0 +-.085 -.004 .01185 0 1 0 .002 0 0 1 14 816 313 838 ?839 810 840
 5 836 -0 0 839 810 22 51 837 395 0 839 836 819 0 +.065 -.004 .01185 0 1 0 .002
 0 0 1 14 839 289 841 ?792 816 842 5 837 -0 0 792 816 22 51 819 392 0 792 837 79
3 0 +.085 -.004 .01185 0 1 0 .002 0 0 1 14 792 265 843 ?613 839 844 5 819 -0 0 6
13 839 22 81 1 843 2720 584 792 845 0 841 846 847 15 844 268 0 441 792 848 17 44
1 0 844 441 441 0 786 439 0 0 +15 848 269 0 800 792 0 17 800 0 848 800 800 0 396
 394 0 0 -80 7 CCCCCDI12 legal_owners0 16 1 lCZ1 584 849 850 9000 1 1 1 1 1 1 1
 1 0 FFFFTFTFFFFFFFFF1 81 3 845 2719 851 792 852 843 853 854 855 0 0 81 1 841 27
18 584 839 853 0 838 843 856 81 1 846 2722 584 18 854 0 843 0 857 82 255 1 847 9
13965214 14 18 2393 846 ?0 573 560 5 6 -0 0 0 573 22 81 3 854 2721 851 18 858 84
6 845 0 859 0 0 82 1 857 -1724251959 80 3 851 860 861 9000 0 0 0 0 3 5 0 0 0 FFF
FTFFFFFFFFFFF1 1 1 81 1 858 2492 862 18 0 854 863 0 864 82 6 859 0 1236318224 31
120861 0 0 0 80 1 862 0 865 8001 0 0 0 0 3 5 0 0 0 FFFFTFTFFFFFFFFF2 81 1 863 24
91 862 573 0 866 867 858 868 83 255 3 864 1 1 1 81 3 866 2637 851 573 863 586 58
5 869 870 0 0 81 1 867 2490 862 580 0 585 871 863 872 83 3 868 1 1 1 81 3 585 26
35 851 580 867 581 0 866 873 0 0 81 1 871 2489 862 582 0 869 874 867 875 83 3 87
2 1 1 1 81 3 869 2639 851 582 871 588 866 597 876 0 0 81 1 874 2488 862 589 0 76
3 877 871 878 83 3 875 1 1 1 81 3 763 2689 851 589 874 761 879 880 881 0 0 81 1
 877 2487 862 757 0 879 882 874 883 83 3 878 1 1 1 81 3 879 2687 851 757 877 759
 884 763 885 0 0 81 1 882 2486 862 727 0 884 886 877 887 83 3 883 1 1 1 81 3 884
 2685 851 727 882 756 888 879 889 0 0 81 1 886 2485 862 718 0 888 890 882 891 83
 3 887 1 1 1 81 3 888 2683 851 718 886 754 892 884 893 0 0 81 1 890 2484 862 698
 0 892 894 886 895 83 3 891 1 1 1 81 3 892 2681 851 698 890 752 896 888 897 0 0
 81 1 894 2483 862 708 0 898 899 890 900 83 3 895 1 1 1 81 3 898 2677 851 708 89
4 744 743 896 901 0 0 81 1 899 2482 862 737 0 743 902 894 903 83 3 900 1 1 1 81
 3 743 2675 851 737 899 679 678 898 904 0 0 81 1 902 2481 862 667 0 896 905 899
 906 83 3 903 1 1 1 81 3 896 2679 851 667 902 747 898 892 907 0 0 81 1 905 2480
 862 567 0 908 909 902 910 83 3 906 1 1 1 81 3 908 2665 851 567 905 666 911 912
 913 0 0 81 1 909 2479 862 576 0 911 914 905 915 83 3 910 1 1 1 81 3 911 2663 85
1 576 909 664 916 908 917 0 0 81 1 914 2478 862 565 0 912 918 909 919 83 3 915 1
 1 1 81 3 912 2667 851 565 914 669 908 920 921 0 0 81 1 918 2477 862 658 0 916 9
22 914 923 83 3 919 1 1 1 81 3 916 2661 851 658 918 660 924 911 925 0 0 81 1 922
 2476 862 647 0 924 926 918 927 83 3 923 1 1 1 81 3 924 2659 851 647 922 657 928
 916 929 0 0 81 1 926 2475 862 642 0 930 931 922 932 83 3 927 1 1 1 81 3 930 265
3 851 642 926 645 644 933 934 0 0 81 1 931 2474 862 640 0 644 935 926 936 83 3 9
32 1 1 1 81 3 644 2651 851 640 931 641 937 930 938 0 0 81 1 935 2473 862 625 0 9
33 939 931 940 83 3 936 1 1 1 81 3 933 2655 851 625 935 650 930 928 941 0 0 81 1
 939 2472 862 629 0 928 942 935 943 83 3 940 1 1 1 81 3 928 2657 851 629 939 654
 933 924 944 0 0 81 1 942 2471 862 655 0 678 945 939 946 83 3 943 1 1 1 81 3 678
 2673 851 655 942 676 947 743 948 0 0 81 1 945 2470 862 672 0 947 949 942 950 83
 3 946 1 1 1 81 3 947 2671 851 672 945 674 920 678 951 0 0 81 1 949 2469 862 251
 0 920 952 945 953 83 3 950 1 1 1 81 3 920 2669 851 251 949 671 912 947 954 0 0
 81 1 952 2468 862 603 0 955 956 949 957 83 3 953 1 1 1 81 3 955 2647 851 603 95
2 609 608 937 958 0 0 81 1 956 2467 862 596 0 608 959 952 960 83 3 957 1 1 1 81
 3 608 2645 851 596 956 605 961 955 962 0 0 81 1 959 2466 862 606 0 937 963 956
 964 83 3 960 1 1 1 81 3 937 2649 851 606 959 612 955 644 965 0 0 81 1 963 2465
 862 613 0 966 852 959 967 83 3 964 1 1 1 81 3 966 2693 851 613 963 791 880 968
 969 0 0 81 1 852 2464 862 792 0 845 970 963 971 83 3 967 1 1 1 81 1 970 2463 86
2 839 0 853 972 852 973 83 3 971 1 1 1 81 3 853 2717 851 839 970 841 974 845 975
 0 0 81 1 972 2462 862 816 0 974 976 970 977 83 3 973 1 1 1 81 3 974 2715 851 81
6 972 838 978 853 979 0 0 81 1 976 2461 862 810 0 980 981 972 982 83 3 977 1 1 1
 81 3 980 2699 851 810 976 814 813 983 984 0 0 81 1 981 2460 862 797 0 813 985 9
76 986 83 3 982 1 1 1 81 3 813 2697 851 797 981 809 968 980 987 0 0 81 1 985 245
9 862 275 0 968 988 981 989 83 3 986 1 1 1 81 3 968 2695 851 275 985 796 966 813
 990 0 0 81 1 988 2458 862 694 0 991 992 985 993 83 3 989 1 1 1 81 3 991 2707 85
1 694 988 826 994 828 995 0 0 81 1 992 2457 862 723 0 994 996 988 997 83 3 993 1
 1 1 81 3 994 2705 851 723 992 825 998 991 999 0 0 81 1 996 2456 862 713 0 998 1
000 992 1001 83 3 997 1 1 1 81 3 998 2703 851 713 996 823 983 994 1002 0 0 81 1
 1000 2455 862 705 0 828 1003 996 1004 83 3 1001 1 1 1 81 3 828 2709 851 705 100
0 827 991 832 1005 0 0 81 1 1003 2454 862 634 0 832 1006 1000 1007 83 3 1004 1 1
 1 81 3 832 2711 851 634 1003 829 828 978 1008 0 0 81 1 1006 2453 862 558 0 983
 1009 1003 1010 83 3 1007 1 1 1 81 3 983 2701 851 558 1006 821 980 998 1011 0 0
 81 1 1009 2452 862 266 0 978 1012 1006 1013 83 3 1010 1 1 1 81 3 978 2713 851 2
66 1009 833 832 974 1014 0 0 81 1 1012 2451 862 600 0 880 1015 1009 1016 83 3 10
13 1 1 1 81 3 880 2691 851 600 1012 764 763 966 1017 0 0 81 1 1015 2450 862 593
 0 961 1018 1012 1019 83 3 1016 1 1 1 81 3 961 2643 851 593 1015 598 597 608 102
0 0 0 81 1 1018 2449 862 16 0 597 0 1015 1021 83 3 1019 1 1 1 81 3 597 2641 851
 16 1018 592 869 961 1022 0 0 83 3 1021 1 1 1 82 6 1022 0 -477392334 31120860 0
 0 0 81 1 598 2644 584 593 961 0 592 605 1023 82 6 1020 0 -477392334 31120860 0
 0 0 82 1 1023 142606528 81 1 764 2692 584 600 880 0 761 791 1024 82 6 1017 0 12
36318224 31120861 0 0 0 81 1 791 2694 584 613 966 0 764 796 1025 82 1 1024 -1360
52535 81 1 796 2696 584 275 968 0 791 809 1026 82 1 1025 917897374 82 1 1026 645
791945 81 1 833 2714 584 266 978 0 829 838 1027 82 6 1014 0 -477058859 31120860
 0 0 0 81 1 838 2716 584 816 974 0 833 841 1028 82 1 1027 -137232191 82 1 1028 9
06100894 81 1 821 2702 584 558 983 0 814 823 1029 82 6 1011 0 1236318224 3112086
1 0 0 0 81 1 814 2700 584 810 980 0 809 821 1030 81 1 823 2704 584 713 998 0 821
 825 1031 82 1 1029 -138870583 81 1 825 2706 584 723 994 0 823 826 1032 82 1 103
1 652345543 81 1 826 2708 584 694 991 0 825 827 1033 82 1 1032 652476615 82 1 10
33 652607687 82 1 1030 902168734 82 6 1008 0 -477058859 31120860 0 0 0 82 6 1005
 0 860393394 31120861 0 0 0 82 6 1002 0 860393394 31120861 0 0 0 82 6 999 0 8603
93394 31120861 0 0 0 82 6 995 0 860393394 31120861 0 0 0 82 6 990 0 1236318224 3
1120861 0 0 0 82 6 987 0 -2011129153 31120856 0 0 0 82 6 984 0 -2011129153 31120
856 0 0 0 82 6 979 0 -2011129153 31120856 0 0 0 82 6 975 0 -2011129153 31120856
 0 0 0 82 6 969 0 -2011129153 31120856 0 0 0 81 1 612 2650 584 606 937 0 609 641
 1034 82 6 965 0 -477058859 31120860 0 0 0 81 1 609 2648 584 603 955 0 605 612 1
035 82 1 1034 -523960127 82 1 1035 -157941568 82 6 962 0 -477392334 31120860 0 0
 0 82 6 958 0 -477392334 31120860 0 0 0 81 1 671 2670 584 251 920 0 669 674 1036
 82 6 954 0 -477392334 31120860 0 0 0 81 1 669 2668 584 565 912 0 666 671 1037 8
1 1 674 2672 584 672 947 0 671 676 1038 82 1 1036 145883328 82 1 1038 145096896
 81 1 666 2666 584 567 908 0 664 669 1039 82 1 1037 13435081 81 1 664 2664 584 5
76 911 0 660 666 1040 82 1 1039 13304009 81 1 660 2662 584 658 916 0 657 664 104
1 82 1 1040 13172937 81 1 657 2660 584 647 924 0 654 660 1042 82 1 1041 22216905
 81 1 654 2658 584 629 928 0 650 657 1043 82 1 1042 22085833 81 1 650 2656 584 6
25 933 0 645 654 1044 82 1 1043 151519424 81 1 645 2654 584 642 930 0 641 650 10
45 82 1 1044 150732992 82 1 1045 22347977 82 6 951 0 -477392334 31120860 0 0 0 8
2 6 948 0 -477392334 31120860 0 0 0 82 6 944 0 -477392334 31120860 0 0 0 82 6 94
1 0 -477392334 31120860 0 0 0 82 6 938 0 -477392334 31120860 0 0 0 82 6 934 0 12
36318224 31120861 0 0 0 82 6 929 0 1236318224 31120861 0 0 0 82 6 925 0 12363182
24 31120861 0 0 0 82 6 921 0 1236318224 31120861 0 0 0 82 6 917 0 1236318224 311
20861 0 0 0 82 6 913 0 1236318224 31120861 0 0 0 81 1 747 2680 584 667 896 0 744
 752 1046 82 6 907 0 -477058859 31120860 0 0 0 81 1 744 2678 584 708 898 0 679 7
47 1047 81 1 752 2682 584 698 892 0 747 754 1048 82 1 1046 189268161 81 1 754 26
84 584 718 888 0 752 756 1049 82 1 1048 1503789255 81 1 756 2686 584 727 884 0 7
54 759 1050 82 1 1049 1505755335 81 1 759 2688 584 757 879 0 756 761 1051 82 1 1
050 1507721415 82 1 1051 -1734082359 82 1 1047 1501823175 82 6 904 0 -477058859
 31120860 0 0 0 82 6 901 0 860393394 31120861 0 0 0 82 6 897 0 860393394 3112086
1 0 0 0 82 6 893 0 860393394 31120861 0 0 0 82 6 889 0 860393394 31120861 0 0 0
 82 6 885 0 1236318224 31120861 0 0 0 82 6 881 0 1236318224 31120861 0 0 0 81 1
 588 2640 584 582 869 0 586 592 1052 82 6 876 0 1236318224 31120861 0 0 0 81 1 5
86 2638 584 573 866 0 581 588 1053 82 1 1052 -1730150199 82 1 1053 -1726218039 8
2 6 873 0 1236318224 31120861 0 0 0 82 6 870 0 1236318224 31120861 0 0 0 79 255
 15 865 SDL/TYSA_COLOUR79 18 861 DOWNSTREAM_FACE_ID82 1 856 910033054 82 6 855 0
 -2011129153 31120856 0 0 0 79 14 850 SWEntUnchanged15 842 292 0 438 839 1054 17
 438 0 842 438 438 0 784 436 0 0 +15 1054 293 0 802 839 0 17 802 0 1054 802 802
 0 393 391 0 0 -15 840 316 0 435 816 1055 17 435 0 840 435 435 0 1056 433 0 0 +1
5 1055 317 0 804 816 0 17 804 0 1055 804 804 0 390 388 0 0 -17 1056 0 559 1056 1
056 0 435 433 0 0 -15 559 160 0 1056 558 1057 15 1057 153 0 1058 558 1059 17 105
8 0 1057 1058 1058 0 432 430 0 0 -15 1059 146 0 1060 558 620 17 1060 0 1059 1060
 1060 0 429 401 0 0 -17 429 0 811 429 429 0 1060 401 0 0 +17 432 0 817 432 432 0
 1058 430 0 0 +15 817 340 0 432 810 1061 15 1061 341 0 806 810 0 17 806 0 1061 8
06 806 0 386 384 0 0 -82 1 834 -140050239 82 1 830 652738759 82 1 815 898171038
 82 1 765 -1732116279 82 1 745 191234241 17 177 0 675 682 243 175 255 277 0 681
 -17 186 0 677 228 269 184 240 268 0 445 +82 1 680 144244928 82 1 646 149881024
 82 1 610 -167313216 82 1 599 148242624 51 19 2384 0 573 583 6 0 +-.075 -.004 .0
091299589741352 0 -1 0 .002 0 0 -1 82 1 587 -1728184119 19 17 100 0 1 0 9 5 0 S0
 74 4 CI16 index_map_offset0 0 1 dCCZ20 15 11 0 0 854 846 1062 1063 1064 1065 10
66 1067 13 858 2 0 0 0 0 0 0 0 0 0 81 2 1062 785 1068 1 0 1063 0 0 0 1069 81 2 1
063 795 1070 1 1062 1064 0 0 0 1071 81 2 1064 796 1072 1 1063 1065 0 0 1073 0 81
 2 1065 2044 1074 1 1064 1066 0 0 0 0 81 1 1066 2444 1075 1 1065 1067 0 0 1076 8
1 2 1067 2445 1077 1 1066 13 0 0 1078 0 81 2 13 2448 1079 1 1067 2 0 0 0 1080 80
 2 1079 1081 1082 9000 0 0 0 0 3 5 0 0 0 FFTFFFFFFFFFFFFF9 1 82 1 1080 1 79 24 1
082 BODY_IN_LIGHTWEIGHT_PERM80 2 1077 1083 1084 8004 0 0 0 0 3 5 0 0 0 FFTFFFFFF
FFFFFFF2 3 83 1 1078 1e3 79 16 1084 SDL/TYSA_DENSITY80 1 1075 1085 1086 9000 1 1
 1 1 1 1 1 1 0 FFTFFFFFFFFFFFFF1 82 1 1076 140924 79 10 1086 BODY_MATCH80 2 1074
 1087 1088 9000 0 0 0 0 3 5 0 0 0 FFTFFFFFFFFFFFFF9 1 79 16 1088 BODY_RECIPE_200
180 2 1072 1089 1090 9000 0 0 0 0 3 5 0 0 0 FFTFTTTFFTFFFFFF10 10 98 255 3 1073
 22278 -30254 51 79 23 1090 SWIMPLICITBODYNAME_ID_U80 2 1070 1091 1092 9000 0 0
 0 0 3 5 0 0 0 FFTFFFFFFFFFFFFF9 1 82 1 1071 146 79 30 1092 LAST_BODY_MODIFYING_
FEATURE_ID80 2 1068 1093 1094 9000 0 0 0 0 3 5 0 0 0 FFTFFFFFFFFFFFFF9 1 82 1 10
69 160 79 19 1094 ENT_TIME_STAMP_200180 2 12 1095 1096 9000 0 0 0 0 3 5 0 0 0 FF
TFFFFFFFFFFFFF9 1 82 1 14 110 79 12 1096 ATOM_ID_20011 0 
